<svg width="18" height="22" viewBox="0 0 18 22" fill="none" xmlns="http://www.w3.org/2000/svg">
<path d="M4.78125 8.59375C4.78125 8.32025 4.87014 8.05794 5.02838 7.86455C5.18661 7.67115 5.40122 7.5625 5.625 7.5625H12.375C12.5988 7.5625 12.8134 7.67115 12.9716 7.86455C13.1299 8.05794 13.2188 8.32025 13.2188 8.59375C13.2188 8.86725 13.1299 9.12956 12.9716 9.32295C12.8134 9.51635 12.5988 9.625 12.375 9.625H5.625C5.40122 9.625 5.18661 9.51635 5.02838 9.32295C4.87014 9.12956 4.78125 8.86725 4.78125 8.59375ZM5.625 13.0625H12.375C12.5988 13.0625 12.8134 12.9538 12.9716 12.7605C13.1299 12.5671 13.2188 12.3048 13.2188 12.0312C13.2188 11.7577 13.1299 11.4954 12.9716 11.302C12.8134 11.1087 12.5988 11 12.375 11H5.625C5.40122 11 5.18661 11.1087 5.02838 11.302C4.87014 11.4954 4.78125 11.7577 4.78125 12.0312C4.78125 12.3048 4.87014 12.5671 5.02838 12.7605C5.18661 12.9538 5.40122 13.0625 5.625 13.0625ZM16.5938 4.8125V17.875C16.5937 18.0508 16.5569 18.2237 16.4869 18.3772C16.4168 18.5307 16.3158 18.6598 16.1934 18.7522C16.0711 18.8446 15.9314 18.8972 15.7877 18.9051C15.644 18.913 15.5011 18.8758 15.3724 18.7971L13.5 17.6533L11.6276 18.7971C11.5104 18.8688 11.3811 18.9061 11.25 18.9061C11.1189 18.9061 10.9896 18.8688 10.8724 18.7971L9 17.6533L7.12758 18.7971C7.01036 18.8688 6.88108 18.9061 6.75 18.9061C6.61892 18.9061 6.48964 18.8688 6.37242 18.7971L4.5 17.6533L2.62758 18.7971C2.49895 18.8758 2.356 18.913 2.2123 18.9051C2.06861 18.8972 1.92894 18.8446 1.80657 18.7522C1.6842 18.6598 1.58318 18.5307 1.51312 18.3772C1.44305 18.2237 1.40627 18.0508 1.40625 17.875V4.8125C1.40625 4.35666 1.55441 3.91949 1.81813 3.59716C2.08185 3.27483 2.43954 3.09375 2.8125 3.09375H15.1875C15.5605 3.09375 15.9181 3.27483 16.1819 3.59716C16.4456 3.91949 16.5938 4.35666 16.5938 4.8125ZM14.9062 5.15625H3.09375V16.2061L4.12242 15.5779C4.23964 15.5062 4.36892 15.4689 4.5 15.4689C4.63108 15.4689 4.76036 15.5062 4.87758 15.5779L6.75 16.7217L8.62242 15.5779C8.73964 15.5062 8.86892 15.4689 9 15.4689C9.13108 15.4689 9.26036 15.5062 9.37758 15.5779L11.25 16.7217L13.1224 15.5779C13.2396 15.5062 13.3689 15.4689 13.5 15.4689C13.6311 15.4689 13.7604 15.5062 13.8776 15.5779L14.9062 16.2061V5.15625Z" fill="#01A0FA"/>
</svg>
