<svg width="32" height="22" viewBox="0 0 32 22" fill="none" xmlns="http://www.w3.org/2000/svg">
<rect width="32" height="22" rx="4" fill="#6788DD"/>
<path d="M6.64063 13.3594V12.5625L10.1562 7H10.7344V8.23438H10.3438L7.6875 12.4375V12.5H12.4219V13.3594H6.64063ZM10.4063 15V13.1172V12.7461V7H11.3281V15H10.4063ZM13.8857 15V14.2969L16.5264 11.4062C16.8363 11.0677 17.0915 10.7734 17.292 10.5234C17.4925 10.2708 17.641 10.0339 17.7373 9.8125C17.8363 9.58854 17.8857 9.35417 17.8857 9.10937C17.8857 8.82813 17.818 8.58464 17.6826 8.37891C17.5498 8.17318 17.3675 8.01432 17.1357 7.90234C16.904 7.79036 16.6436 7.73437 16.3545 7.73437C16.0472 7.73437 15.779 7.79818 15.5498 7.92578C15.3232 8.05078 15.1475 8.22656 15.0225 8.45312C14.9001 8.67969 14.8389 8.94531 14.8389 9.25H13.917C13.917 8.78125 14.0251 8.36979 14.2412 8.01562C14.4574 7.66146 14.7516 7.38542 15.124 7.1875C15.499 6.98958 15.9196 6.89062 16.3857 6.89062C16.8545 6.89062 17.2699 6.98958 17.6318 7.1875C17.9938 7.38542 18.2777 7.65234 18.4834 7.98828C18.6891 8.32422 18.792 8.69792 18.792 9.10937C18.792 9.40365 18.7386 9.69141 18.6318 9.97266C18.5277 10.2513 18.3454 10.5625 18.085 10.9062C17.8271 11.2474 17.4691 11.6641 17.0107 12.1562L15.2139 14.0781V14.1406H18.9326V15H13.8857ZM23.0459 15.1094C22.5876 15.1094 22.1748 15.0182 21.8076 14.8359C21.4404 14.6536 21.1462 14.4036 20.9248 14.0859C20.7035 13.7682 20.5824 13.4062 20.5615 13H21.499C21.5355 13.362 21.6995 13.6615 21.9912 13.8984C22.2855 14.1328 22.637 14.25 23.0459 14.25C23.374 14.25 23.6657 14.1732 23.9209 14.0195C24.1787 13.8659 24.3805 13.6549 24.5264 13.3867C24.6748 13.1159 24.749 12.8099 24.749 12.4687C24.749 12.1198 24.6722 11.8086 24.5186 11.5352C24.3675 11.2591 24.1592 11.0417 23.8936 10.8828C23.6279 10.724 23.3245 10.6432 22.9834 10.6406C22.7386 10.638 22.4873 10.6758 22.2295 10.7539C21.9717 10.8294 21.7594 10.9271 21.5928 11.0469L20.6865 10.9375L21.1709 7H25.3271V7.85937H21.9834L21.7021 10.2187H21.749C21.9131 10.0885 22.1188 9.98047 22.3662 9.89453C22.6136 9.80859 22.8714 9.76562 23.1396 9.76562C23.6292 9.76562 24.0654 9.88281 24.4482 10.1172C24.8337 10.349 25.1357 10.6667 25.3545 11.0703C25.5758 11.474 25.6865 11.9349 25.6865 12.4531C25.6865 12.9635 25.5719 13.4193 25.3428 13.8203C25.1162 14.2187 24.8037 14.5339 24.4053 14.7656C24.0068 14.9948 23.5537 15.1094 23.0459 15.1094Z" fill="white"/>
</svg>
