<svg width="46" height="6" viewBox="0 0 46 6" fill="none" xmlns="http://www.w3.org/2000/svg">
<path fill-rule="evenodd" clip-rule="evenodd" d="M3 5.08905L1.45029 5.943C1.19638 6.08292 1.02981 5.95638 1.07835 5.65976L1.37431 3.85105L0.120577 2.57012C-0.0848426 2.36024 -0.0214965 2.15509 0.262647 2.11182L1.99527 1.84793L2.77012 0.202313C2.89708 -0.0673139 3.1028 -0.0675617 3.22987 0.202313L4.00472 1.84793L5.73735 2.11182C6.02123 2.15505 6.08502 2.36005 5.87942 2.57012L4.62568 3.85105L4.92165 5.65976C4.97014 5.95611 4.80385 6.08305 4.5497 5.943L3 5.08905Z" fill="#FFBC10"/>
<path fill-rule="evenodd" clip-rule="evenodd" d="M13 5.08905L11.4503 5.943C11.1964 6.08292 11.0298 5.95638 11.0783 5.65976L11.3743 3.85105L10.1206 2.57012C9.91516 2.36024 9.9785 2.15509 10.2626 2.11182L11.9953 1.84793L12.7701 0.202313C12.8971 -0.0673139 13.1028 -0.0675617 13.2299 0.202313L14.0047 1.84793L15.7373 2.11182C16.0212 2.15505 16.085 2.36005 15.8794 2.57012L14.6257 3.85105L14.9216 5.65976C14.9701 5.95611 14.8038 6.08305 14.5497 5.943L13 5.08905Z" fill="#FFBC10"/>
<path fill-rule="evenodd" clip-rule="evenodd" d="M23 5.08905L21.4503 5.943C21.1964 6.08292 21.0298 5.95638 21.0783 5.65976L21.3743 3.85105L20.1206 2.57012C19.9152 2.36024 19.9785 2.15509 20.2626 2.11182L21.9953 1.84793L22.7701 0.202313C22.8971 -0.0673139 23.1028 -0.0675617 23.2299 0.202313L24.0047 1.84793L25.7373 2.11182C26.0212 2.15505 26.085 2.36005 25.8794 2.57012L24.6257 3.85105L24.9216 5.65976C24.9701 5.95611 24.8038 6.08305 24.5497 5.943L23 5.08905Z" fill="#FFBC10"/>
<path fill-rule="evenodd" clip-rule="evenodd" d="M33 5.08905L31.4503 5.943C31.1964 6.08292 31.0298 5.95638 31.0783 5.65976L31.3743 3.85105L30.1206 2.57012C29.9152 2.36024 29.9785 2.15509 30.2626 2.11182L31.9953 1.84793L32.7701 0.202313C32.8971 -0.0673139 33.1028 -0.0675617 33.2299 0.202313L34.0047 1.84793L35.7373 2.11182C36.0212 2.15505 36.085 2.36005 35.8794 2.57012L34.6257 3.85105L34.9216 5.65976C34.9701 5.95611 34.8038 6.08305 34.5497 5.943L33 5.08905Z" fill="#FFBC10"/>
<path d="M43 4.80361L42.8793 4.87009L41.3296 5.72405C41.3268 5.72561 41.324 5.72709 41.3214 5.72848C41.3222 5.71987 41.3234 5.71043 41.3251 5.70013L41.621 3.89142L41.6415 3.76658L41.553 3.67618L40.2992 2.39525C40.2879 2.3837 40.2791 2.37338 40.2722 2.36443C40.2802 2.36248 40.2895 2.36061 40.3003 2.35897L42.0329 2.09508L42.1647 2.07501L42.2215 1.95443L42.9963 0.308813C42.9975 0.306178 42.9988 0.303626 43 0.301156C43.0012 0.303626 43.0024 0.306178 43.0037 0.308813L43.2299 0.202313L43.0037 0.308813L43.7785 1.95443L43.8353 2.07501L43.9671 2.09508L45.6997 2.35897C45.7105 2.36061 45.7198 2.36248 45.7278 2.36443C45.7209 2.37338 45.7121 2.3837 45.7008 2.39525L44.447 3.67618L44.3585 3.76658L44.379 3.89142L44.6749 5.70013C44.6766 5.71043 44.6778 5.71987 44.6786 5.72848C44.676 5.72709 44.6732 5.72561 44.6704 5.72405L43.1207 4.87009L43 4.80361Z" fill="white" stroke="#FFBC10" stroke-width="0.5"/>
</svg>
