<svg width="43" height="38" viewBox="0 0 43 38" fill="none" xmlns="http://www.w3.org/2000/svg">
<path d="M37.4375 5.15625H31.9152L29.1998 1.08422C29.0543 0.866177 28.8573 0.687381 28.6262 0.563671C28.3951 0.439962 28.1371 0.375157 27.875 0.375H15.125C14.8629 0.375157 14.6049 0.439962 14.3738 0.563671C14.1427 0.687381 13.9457 0.866177 13.8002 1.08422L11.0829 5.15625H5.5625C4.29443 5.15625 3.0783 5.65999 2.18165 6.55665C1.28499 7.4533 0.78125 8.66943 0.78125 9.9375V32.25C0.78125 33.5181 1.28499 34.7342 2.18165 35.6309C3.0783 36.5275 4.29443 37.0312 5.5625 37.0312H37.4375C38.7056 37.0312 39.9217 36.5275 40.8184 35.6309C41.715 34.7342 42.2188 33.5181 42.2188 32.25V9.9375C42.2188 8.66943 41.715 7.4533 40.8184 6.55665C39.9217 5.65999 38.7056 5.15625 37.4375 5.15625ZM39.0312 32.25C39.0312 32.6727 38.8633 33.0781 38.5645 33.377C38.2656 33.6758 37.8602 33.8438 37.4375 33.8438H5.5625C5.13981 33.8438 4.73444 33.6758 4.43555 33.377C4.13666 33.0781 3.96875 32.6727 3.96875 32.25V9.9375C3.96875 9.51481 4.13666 9.10944 4.43555 8.81055C4.73444 8.51166 5.13981 8.34375 5.5625 8.34375H11.9375C12.2 8.34392 12.4584 8.27927 12.6898 8.15555C12.9213 8.03183 13.1186 7.85285 13.2643 7.63453L15.9777 3.5625H27.0204L29.7357 7.63453C29.8814 7.85285 30.0787 8.03183 30.3102 8.15555C30.5416 8.27927 30.8 8.34392 31.0625 8.34375H37.4375C37.8602 8.34375 38.2656 8.51166 38.5645 8.81055C38.8633 9.10944 39.0312 9.51481 39.0312 9.9375V32.25ZM21.5 11.5312C19.7663 11.5312 18.0716 12.0453 16.6301 13.0085C15.1886 13.9717 14.0651 15.3407 13.4016 16.9424C12.7382 18.5441 12.5646 20.3066 12.9028 22.007C13.241 23.7073 14.0759 25.2692 15.3018 26.4951C16.5277 27.721 18.0895 28.5558 19.7899 28.8941C21.4903 29.2323 23.2528 29.0587 24.8545 28.3953C26.4562 27.7318 27.8252 26.6083 28.7883 25.1668C29.7515 23.7253 30.2656 22.0306 30.2656 20.2969C30.263 17.9729 29.3386 15.7449 27.6953 14.1016C26.052 12.4583 23.824 11.5339 21.5 11.5312ZM21.5 25.875C20.3968 25.875 19.3183 25.5478 18.401 24.9349C17.4836 24.322 16.7687 23.4508 16.3465 22.4315C15.9243 21.4123 15.8138 20.2907 16.0291 19.2086C16.2443 18.1266 16.7756 17.1327 17.5557 16.3525C18.3358 15.5724 19.3297 15.0412 20.4118 14.8259C21.4938 14.6107 22.6154 14.7212 23.6347 15.1434C24.6539 15.5656 25.5251 16.2805 26.138 17.1978C26.751 18.1152 27.0781 19.1936 27.0781 20.2969C27.0781 21.7763 26.4904 23.1951 25.4443 24.2412C24.3982 25.2873 22.9794 25.875 21.5 25.875Z" fill="#699BF7"/>
</svg>
