<svg width="63" height="72" viewBox="0 0 63 72" fill="none" xmlns="http://www.w3.org/2000/svg">
<rect width="63" height="72" fill="white"/>
<path d="M27.7614 35.0526L26.6065 35.2571C26.5582 35.1094 26.4815 34.9687 26.3764 34.8352C26.2741 34.7017 26.1349 34.5923 25.9588 34.5071C25.7827 34.4219 25.5625 34.3793 25.2983 34.3793C24.9375 34.3793 24.6364 34.4602 24.3949 34.6222C24.1534 34.7812 24.0327 34.9872 24.0327 35.2401C24.0327 35.4588 24.1136 35.6349 24.2756 35.7685C24.4375 35.902 24.6989 36.0114 25.0597 36.0966L26.0994 36.3352C26.7017 36.4744 27.1506 36.6889 27.446 36.9787C27.7415 37.2685 27.8892 37.6449 27.8892 38.108C27.8892 38.5 27.7756 38.8494 27.5483 39.1562C27.3239 39.4602 27.0099 39.6989 26.6065 39.8722C26.206 40.0455 25.7415 40.1321 25.2131 40.1321C24.4801 40.1321 23.8821 39.9759 23.419 39.6634C22.956 39.348 22.6719 38.9006 22.5668 38.321L23.7983 38.1335C23.875 38.4545 24.0327 38.6974 24.2713 38.8622C24.5099 39.0241 24.821 39.1051 25.2045 39.1051C25.6222 39.1051 25.956 39.0185 26.206 38.8452C26.456 38.669 26.581 38.4545 26.581 38.2017C26.581 37.9972 26.5043 37.8253 26.3509 37.6861C26.2003 37.5469 25.9688 37.4418 25.6562 37.3707L24.5483 37.1278C23.9375 36.9886 23.4858 36.767 23.1932 36.4631C22.9034 36.1591 22.7585 35.7741 22.7585 35.3082C22.7585 34.9219 22.8665 34.5838 23.0824 34.294C23.2983 34.0043 23.5966 33.7784 23.9773 33.6165C24.358 33.4517 24.794 33.3693 25.2855 33.3693C25.9929 33.3693 26.5497 33.5227 26.956 33.8295C27.3622 34.1335 27.6307 34.5412 27.7614 35.0526ZM34.8896 33.4545L32.516 40H31.1523L28.7745 33.4545H30.1424L31.8001 38.4915H31.8683L33.5217 33.4545H34.8896ZM38.6087 42.5909C38.0888 42.5909 37.6413 42.5227 37.2663 42.3864C36.8942 42.25 36.5902 42.0696 36.3544 41.8452C36.1186 41.6207 35.9425 41.375 35.826 41.108L36.9212 40.6562C36.9979 40.7812 37.1001 40.9134 37.228 41.0526C37.3587 41.1946 37.5348 41.3153 37.7564 41.4148C37.9808 41.5142 38.2692 41.5639 38.6214 41.5639C39.1044 41.5639 39.5036 41.446 39.8189 41.2102C40.1342 40.9773 40.2919 40.6051 40.2919 40.0938V38.8068H40.2109C40.1342 38.946 40.0234 39.1009 39.8786 39.2713C39.7365 39.4418 39.5405 39.5895 39.2905 39.7145C39.0405 39.8395 38.7152 39.902 38.3146 39.902C37.7976 39.902 37.3317 39.7812 36.9169 39.5398C36.505 39.2955 36.1783 38.9361 35.9368 38.4616C35.6982 37.9844 35.5788 37.3977 35.5788 36.7017C35.5788 36.0057 35.6967 35.4091 35.9325 34.9119C36.1712 34.4148 36.4979 34.0341 36.9126 33.7699C37.3274 33.5028 37.7976 33.3693 38.3232 33.3693C38.7294 33.3693 39.0575 33.4375 39.3075 33.5739C39.5575 33.7074 39.7521 33.8636 39.8913 34.0426C40.0334 34.2216 40.1428 34.3793 40.2195 34.5156H40.3132V33.4545H41.5618V40.1449C41.5618 40.7074 41.4311 41.169 41.1697 41.5298C40.9084 41.8906 40.5547 42.1577 40.1087 42.331C39.6655 42.5043 39.1655 42.5909 38.6087 42.5909ZM38.5959 38.8452C38.9624 38.8452 39.272 38.7599 39.5249 38.5895C39.7805 38.4162 39.9737 38.169 40.1044 37.848C40.2379 37.5241 40.3047 37.1364 40.3047 36.6847C40.3047 36.2443 40.2393 35.8565 40.1087 35.5213C39.978 35.1861 39.7862 34.9247 39.5334 34.7372C39.2805 34.5469 38.968 34.4517 38.5959 34.4517C38.2124 34.4517 37.8928 34.5511 37.6371 34.75C37.3814 34.946 37.1882 35.2131 37.0575 35.5511C36.9297 35.8892 36.8658 36.267 36.8658 36.6847C36.8658 37.1136 36.9311 37.4901 37.0618 37.8139C37.1925 38.1378 37.3857 38.3906 37.6413 38.5724C37.8999 38.7543 38.218 38.8452 38.5959 38.8452Z" fill="black"/>
</svg>
