<svg width="219" height="257" viewBox="0 0 219 257" fill="none" xmlns="http://www.w3.org/2000/svg">
<g filter="url(#filter0_d_1773_18728)">
<rect x="3.61816" y="0.786621" width="211.857" height="248.625" rx="1.75088" fill="white"/>
<rect x="4.05588" y="1.22434" width="210.981" height="247.75" rx="1.31316" stroke="black" stroke-width="0.875441" stroke-dasharray="1.75 1.75"/>
<path d="M50.2961 144.027V151.748C50.2961 152.834 50.5587 153.639 51.084 154.164C51.6209 154.69 52.3622 154.952 53.3076 154.952C54.2414 154.952 54.971 154.69 55.4962 154.164C56.0332 153.639 56.3016 152.834 56.3016 151.748V144.027H57.8949V151.731C57.8949 152.746 57.6907 153.604 57.2821 154.304C56.8736 154.993 56.3191 155.507 55.6188 155.845C54.9301 156.184 54.1539 156.353 53.2901 156.353C52.4264 156.353 51.6443 156.184 50.9439 155.845C50.2553 155.507 49.7066 154.993 49.2981 154.304C48.9012 153.604 48.7028 152.746 48.7028 151.731V144.027H50.2961ZM62.365 148.404C62.6802 147.855 63.1471 147.4 63.7657 147.038C64.396 146.665 65.1256 146.478 65.9543 146.478C66.8064 146.478 67.5768 146.682 68.2655 147.091C68.9658 147.499 69.5144 148.077 69.9113 148.824C70.3082 149.56 70.5066 150.418 70.5066 151.398C70.5066 152.367 70.3082 153.231 69.9113 153.989C69.5144 154.748 68.9658 155.338 68.2655 155.758C67.5768 156.178 66.8064 156.388 65.9543 156.388C65.1372 156.388 64.4135 156.207 63.7832 155.845C63.1646 155.472 62.6918 155.011 62.365 154.462V160.783H60.7717V146.636H62.365V148.404ZM68.8783 151.398C68.8783 150.674 68.7324 150.044 68.4406 149.507C68.1488 148.97 67.7519 148.562 67.25 148.281C66.7597 148.001 66.217 147.861 65.6217 147.861C65.038 147.861 64.4953 148.007 63.9933 148.299C63.5031 148.579 63.1062 148.993 62.8027 149.542C62.5109 150.079 62.365 150.704 62.365 151.416C62.365 152.139 62.5109 152.775 62.8027 153.324C63.1062 153.861 63.5031 154.275 63.9933 154.567C64.4953 154.847 65.038 154.987 65.6217 154.987C66.217 154.987 66.7597 154.847 67.25 154.567C67.7519 154.275 68.1488 153.861 68.4406 153.324C68.7324 152.775 68.8783 152.133 68.8783 151.398ZM74.416 143.274V156.23H72.8227V143.274H74.416ZM81.535 156.388C80.6362 156.388 79.8191 156.184 79.0837 155.775C78.36 155.367 77.7881 154.789 77.3679 154.042C76.9593 153.283 76.7551 152.408 76.7551 151.416C76.7551 150.435 76.9652 149.571 77.3854 148.824C77.8173 148.066 78.4009 147.488 79.1363 147.091C79.8716 146.682 80.6946 146.478 81.605 146.478C82.5155 146.478 83.3384 146.682 84.0738 147.091C84.8091 147.488 85.3869 148.06 85.8071 148.807C86.239 149.554 86.455 150.423 86.455 151.416C86.455 152.408 86.2332 153.283 85.7896 154.042C85.3577 154.789 84.7683 155.367 84.0212 155.775C83.2742 156.184 82.4454 156.388 81.535 156.388ZM81.535 154.987C82.1069 154.987 82.6439 154.853 83.1458 154.585C83.6477 154.316 84.0504 153.913 84.3539 153.377C84.6691 152.84 84.8266 152.186 84.8266 151.416C84.8266 150.645 84.6749 149.991 84.3714 149.455C84.0679 148.918 83.6711 148.521 83.1808 148.264C82.6906 147.995 82.1595 147.861 81.5875 147.861C81.0039 147.861 80.4669 147.995 79.9767 148.264C79.4981 148.521 79.1129 148.918 78.8211 149.455C78.5293 149.991 78.3834 150.645 78.3834 151.416C78.3834 152.198 78.5235 152.857 78.8036 153.394C79.0954 153.931 79.4806 154.334 79.9592 154.602C80.4378 154.859 80.963 154.987 81.535 154.987ZM88.1734 151.398C88.1734 150.418 88.3718 149.56 88.7687 148.824C89.1656 148.077 89.7084 147.499 90.397 147.091C91.0974 146.682 91.8736 146.478 92.7257 146.478C93.5661 146.478 94.2957 146.659 94.9143 147.021C95.533 147.383 95.994 147.838 96.2975 148.387V146.636H97.9083V156.23H96.2975V154.445C95.9823 155.005 95.5096 155.472 94.8793 155.845C94.2606 156.207 93.5369 156.388 92.7082 156.388C91.8561 156.388 91.0857 156.178 90.397 155.758C89.7084 155.338 89.1656 154.748 88.7687 153.989C88.3718 153.231 88.1734 152.367 88.1734 151.398ZM96.2975 151.416C96.2975 150.692 96.1516 150.062 95.8598 149.525C95.568 148.988 95.1711 148.579 94.6692 148.299C94.1789 148.007 93.6362 147.861 93.0409 147.861C92.4456 147.861 91.9028 148.001 91.4125 148.281C90.9223 148.562 90.5313 148.97 90.2395 149.507C89.9476 150.044 89.8017 150.674 89.8017 151.398C89.8017 152.133 89.9476 152.775 90.2395 153.324C90.5313 153.861 90.9223 154.275 91.4125 154.567C91.9028 154.847 92.4456 154.987 93.0409 154.987C93.6362 154.987 94.1789 154.847 94.6692 154.567C95.1711 154.275 95.568 153.861 95.8598 153.324C96.1516 152.775 96.2975 152.139 96.2975 151.416ZM100.224 151.398C100.224 150.418 100.423 149.56 100.82 148.824C101.217 148.077 101.759 147.499 102.448 147.091C103.148 146.682 103.93 146.478 104.794 146.478C105.541 146.478 106.236 146.653 106.878 147.003C107.52 147.342 108.01 147.791 108.348 148.352V143.274H109.959V156.23H108.348V154.427C108.033 154.999 107.566 155.472 106.948 155.845C106.329 156.207 105.605 156.388 104.777 156.388C103.925 156.388 103.148 156.178 102.448 155.758C101.759 155.338 101.217 154.748 100.82 153.989C100.423 153.231 100.224 152.367 100.224 151.398ZM108.348 151.416C108.348 150.692 108.203 150.062 107.911 149.525C107.619 148.988 107.222 148.579 106.72 148.299C106.23 148.007 105.687 147.861 105.092 147.861C104.497 147.861 103.954 148.001 103.464 148.281C102.973 148.562 102.582 148.97 102.29 149.507C101.999 150.044 101.853 150.674 101.853 151.398C101.853 152.133 101.999 152.775 102.29 153.324C102.582 153.861 102.973 154.275 103.464 154.567C103.954 154.847 104.497 154.987 105.092 154.987C105.687 154.987 106.23 154.847 106.72 154.567C107.222 154.275 107.619 153.861 107.911 153.324C108.203 152.775 108.348 152.139 108.348 151.416ZM121.625 151.065C121.625 151.369 121.608 151.69 121.573 152.028H113.904C113.962 152.974 114.283 153.715 114.867 154.252C115.462 154.777 116.18 155.04 117.02 155.04C117.709 155.04 118.281 154.882 118.736 154.567C119.203 154.24 119.53 153.808 119.717 153.271H121.432C121.176 154.194 120.662 154.946 119.892 155.53C119.121 156.102 118.164 156.388 117.02 156.388C116.11 156.388 115.293 156.184 114.569 155.775C113.857 155.367 113.297 154.789 112.888 154.042C112.48 153.283 112.275 152.408 112.275 151.416C112.275 150.423 112.474 149.554 112.871 148.807C113.268 148.06 113.822 147.488 114.534 147.091C115.258 146.682 116.086 146.478 117.02 146.478C117.931 146.478 118.736 146.676 119.436 147.073C120.137 147.47 120.674 148.019 121.047 148.719C121.432 149.408 121.625 150.19 121.625 151.065ZM119.979 150.733C119.979 150.126 119.845 149.606 119.577 149.174C119.308 148.731 118.94 148.398 118.474 148.176C118.018 147.943 117.511 147.826 116.95 147.826C116.145 147.826 115.456 148.083 114.884 148.597C114.324 149.11 114.003 149.822 113.921 150.733H119.979ZM130.427 148.404C130.742 147.855 131.209 147.4 131.828 147.038C132.458 146.665 133.188 146.478 134.016 146.478C134.869 146.478 135.639 146.682 136.328 147.091C137.028 147.499 137.577 148.077 137.973 148.824C138.37 149.56 138.569 150.418 138.569 151.398C138.569 152.367 138.37 153.231 137.973 153.989C137.577 154.748 137.028 155.338 136.328 155.758C135.639 156.178 134.869 156.388 134.016 156.388C133.199 156.388 132.476 156.207 131.845 155.845C131.227 155.472 130.754 155.011 130.427 154.462V160.783H128.834V146.636H130.427V148.404ZM136.94 151.398C136.94 150.674 136.794 150.044 136.503 149.507C136.211 148.97 135.814 148.562 135.312 148.281C134.822 148.001 134.279 147.861 133.684 147.861C133.1 147.861 132.557 148.007 132.055 148.299C131.565 148.579 131.168 148.993 130.865 149.542C130.573 150.079 130.427 150.704 130.427 151.416C130.427 152.139 130.573 152.775 130.865 153.324C131.168 153.861 131.565 154.275 132.055 154.567C132.557 154.847 133.1 154.987 133.684 154.987C134.279 154.987 134.822 154.847 135.312 154.567C135.814 154.275 136.211 153.861 136.503 153.324C136.794 152.775 136.94 152.133 136.94 151.398ZM145.647 146.461C146.371 146.461 147.025 146.618 147.608 146.933C148.192 147.237 148.647 147.698 148.974 148.316C149.312 148.935 149.482 149.688 149.482 150.575V156.23H147.906V150.803C147.906 149.846 147.667 149.116 147.188 148.614C146.709 148.101 146.056 147.844 145.227 147.844C144.387 147.844 143.715 148.106 143.213 148.632C142.723 149.157 142.478 149.921 142.478 150.925V156.23H140.885V143.274H142.478V148.001C142.793 147.511 143.225 147.132 143.774 146.863C144.334 146.595 144.959 146.461 145.647 146.461ZM156.488 156.388C155.589 156.388 154.772 156.184 154.037 155.775C153.313 155.367 152.741 154.789 152.321 154.042C151.912 153.283 151.708 152.408 151.708 151.416C151.708 150.435 151.918 149.571 152.338 148.824C152.77 148.066 153.354 147.488 154.089 147.091C154.824 146.682 155.647 146.478 156.558 146.478C157.468 146.478 158.291 146.682 159.027 147.091C159.762 147.488 160.34 148.06 160.76 148.807C161.192 149.554 161.408 150.423 161.408 151.416C161.408 152.408 161.186 153.283 160.742 154.042C160.31 154.789 159.721 155.367 158.974 155.775C158.227 156.184 157.398 156.388 156.488 156.388ZM156.488 154.987C157.06 154.987 157.597 154.853 158.099 154.585C158.6 154.316 159.003 153.913 159.307 153.377C159.622 152.84 159.779 152.186 159.779 151.416C159.779 150.645 159.628 149.991 159.324 149.455C159.021 148.918 158.624 148.521 158.134 148.264C157.643 147.995 157.112 147.861 156.54 147.861C155.957 147.861 155.42 147.995 154.929 148.264C154.451 148.521 154.066 148.918 153.774 149.455C153.482 149.991 153.336 150.645 153.336 151.416C153.336 152.198 153.476 152.857 153.756 153.394C154.048 153.931 154.433 154.334 154.912 154.602C155.391 154.859 155.916 154.987 156.488 154.987ZM165.665 147.949V153.604C165.665 154.071 165.764 154.404 165.963 154.602C166.161 154.789 166.505 154.882 166.996 154.882H168.169V156.23H166.733C165.846 156.23 165.181 156.026 164.737 155.618C164.293 155.209 164.072 154.538 164.072 153.604V147.949H162.829V146.636H164.072V144.219H165.665V146.636H168.169V147.949H165.665ZM174.503 156.388C173.604 156.388 172.787 156.184 172.051 155.775C171.328 155.367 170.756 154.789 170.336 154.042C169.927 153.283 169.723 152.408 169.723 151.416C169.723 150.435 169.933 149.571 170.353 148.824C170.785 148.066 171.369 147.488 172.104 147.091C172.839 146.682 173.662 146.478 174.573 146.478C175.483 146.478 176.306 146.682 177.041 147.091C177.777 147.488 178.355 148.06 178.775 148.807C179.207 149.554 179.423 150.423 179.423 151.416C179.423 152.408 179.201 153.283 178.757 154.042C178.325 154.789 177.736 155.367 176.989 155.775C176.242 156.184 175.413 156.388 174.503 156.388ZM174.503 154.987C175.075 154.987 175.612 154.853 176.113 154.585C176.615 154.316 177.018 153.913 177.322 153.377C177.637 152.84 177.794 152.186 177.794 151.416C177.794 150.645 177.643 149.991 177.339 149.455C177.036 148.918 176.639 148.521 176.148 148.264C175.658 147.995 175.127 147.861 174.555 147.861C173.972 147.861 173.435 147.995 172.944 148.264C172.466 148.521 172.081 148.918 171.789 149.455C171.497 149.991 171.351 150.645 171.351 151.416C171.351 152.198 171.491 152.857 171.771 153.394C172.063 153.931 172.448 154.334 172.927 154.602C173.405 154.859 173.931 154.987 174.503 154.987Z" fill="black" fill-opacity="0.4"/>
<g clip-path="url(#clip0_1773_18728)">
<path d="M110.914 129.476H108.179C107.724 129.476 107.358 129.11 107.358 128.655V122.91H104.359C103.75 122.91 103.446 122.175 103.877 121.744L109.078 116.54C109.334 116.283 109.755 116.283 110.011 116.54L115.216 121.744C115.647 122.175 115.343 122.91 114.734 122.91H111.735V128.655C111.735 129.11 111.369 129.476 110.914 129.476ZM118.301 129.203V133.033C118.301 133.488 117.935 133.853 117.48 133.853H101.613C101.158 133.853 100.792 133.488 100.792 133.033V129.203C100.792 128.748 101.158 128.382 101.613 128.382H106.263V128.655C106.263 129.712 107.122 130.571 108.179 130.571H110.914C111.971 130.571 112.829 129.712 112.829 128.655V128.382H117.48C117.935 128.382 118.301 128.748 118.301 129.203ZM114.06 132.212C114.06 131.836 113.753 131.528 113.376 131.528C113 131.528 112.693 131.836 112.693 132.212C112.693 132.588 113 132.896 113.376 132.896C113.753 132.896 114.06 132.588 114.06 132.212ZM116.249 132.212C116.249 131.836 115.941 131.528 115.565 131.528C115.189 131.528 114.881 131.836 114.881 132.212C114.881 132.588 115.189 132.896 115.565 132.896C115.941 132.896 116.249 132.588 116.249 132.212Z" fill="#444444"/>
</g>
</g>
<defs>
<filter id="filter0_d_1773_18728" x="0.116402" y="0.786621" width="218.86" height="255.629" filterUnits="userSpaceOnUse" color-interpolation-filters="sRGB">
<feFlood flood-opacity="0" result="BackgroundImageFix"/>
<feColorMatrix in="SourceAlpha" type="matrix" values="0 0 0 0 0 0 0 0 0 0 0 0 0 0 0 0 0 0 127 0" result="hardAlpha"/>
<feOffset dy="3.50176"/>
<feGaussianBlur stdDeviation="1.75088"/>
<feComposite in2="hardAlpha" operator="out"/>
<feColorMatrix type="matrix" values="0 0 0 0 0 0 0 0 0 0 0 0 0 0 0 0 0 0 0.25 0"/>
<feBlend mode="normal" in2="BackgroundImageFix" result="effect1_dropShadow_1773_18728"/>
<feBlend mode="normal" in="SourceGraphic" in2="effect1_dropShadow_1773_18728" result="shape"/>
</filter>
<clipPath id="clip0_1773_18728">
<rect width="17.5088" height="17.5088" fill="white" transform="translate(100.792 116.345)"/>
</clipPath>
</defs>
</svg>
