<svg width="290" height="170" viewBox="0 0 290 170" fill="none" xmlns="http://www.w3.org/2000/svg">
<rect width="290" height="170" rx="4" fill="#DFDFDF"/>
<path d="M151.25 69.5313H149.001L147.891 67.8648C147.848 67.8006 147.79 67.7479 147.721 67.7115C147.653 67.6751 147.577 67.6561 147.5 67.6563H142.5C142.423 67.6561 142.347 67.6751 142.279 67.7115C142.21 67.7479 142.152 67.8006 142.109 67.8648L140.998 69.5313H138.75C138.294 69.5313 137.857 69.7123 137.535 70.0347C137.212 70.357 137.031 70.7942 137.031 71.25V80C137.031 80.4558 137.212 80.893 137.535 81.2153C137.857 81.5377 138.294 81.7188 138.75 81.7188H151.25C151.706 81.7188 152.143 81.5377 152.465 81.2153C152.788 80.893 152.969 80.4558 152.969 80V71.25C152.969 70.7942 152.788 70.357 152.465 70.0347C152.143 69.7123 151.706 69.5313 151.25 69.5313ZM152.031 80C152.031 80.2072 151.949 80.4059 151.802 80.5524C151.656 80.6989 151.457 80.7812 151.25 80.7812H138.75C138.543 80.7812 138.344 80.6989 138.198 80.5524C138.051 80.4059 137.969 80.2072 137.969 80V71.25C137.969 71.0428 138.051 70.8441 138.198 70.6976C138.344 70.5511 138.543 70.4688 138.75 70.4688H141.25C141.327 70.4689 141.403 70.4499 141.471 70.4135C141.54 70.3771 141.598 70.3244 141.641 70.2602L142.751 68.5938H147.248L148.359 70.2602C148.402 70.3244 148.46 70.3771 148.529 70.4135C148.597 70.4499 148.673 70.4689 148.75 70.4688H151.25C151.457 70.4688 151.656 70.5511 151.802 70.6976C151.949 70.8441 152.031 71.0428 152.031 71.25V80ZM145 72.0313C144.351 72.0313 143.717 72.2237 143.177 72.5842C142.637 72.9448 142.217 73.4573 141.969 74.0568C141.72 74.6564 141.655 75.3161 141.782 75.9526C141.908 76.5891 142.221 77.1738 142.68 77.6327C143.139 78.0916 143.723 78.4041 144.36 78.5307C144.996 78.6573 145.656 78.5923 146.256 78.344C146.855 78.0956 147.368 77.6751 147.728 77.1355C148.089 76.5959 148.281 75.9615 148.281 75.3125C148.281 74.4423 147.936 73.6077 147.32 72.9923C146.705 72.377 145.87 72.0313 145 72.0313ZM145 77.6562C144.536 77.6562 144.083 77.5188 143.698 77.2613C143.312 77.0037 143.012 76.6377 142.835 76.2094C142.657 75.7811 142.611 75.3099 142.701 74.8553C142.792 74.4006 143.015 73.983 143.343 73.6552C143.67 73.3274 144.088 73.1042 144.543 73.0138C144.997 72.9234 145.469 72.9698 145.897 73.1472C146.325 73.3246 146.691 73.625 146.949 74.0104C147.206 74.3958 147.344 74.849 147.344 75.3125C147.344 75.9341 147.097 76.5302 146.657 76.9698C146.218 77.4093 145.622 77.6562 145 77.6562Z" fill="#444444"/>
<path d="M102.773 97.2727C102.705 96.697 102.428 96.25 101.943 95.9318C101.458 95.6136 100.864 95.4545 100.159 95.4545C99.6439 95.4545 99.1932 95.5379 98.8068 95.7045C98.4242 95.8712 98.125 96.1004 97.9091 96.392C97.697 96.6837 97.5909 97.0152 97.5909 97.3864C97.5909 97.697 97.6648 97.964 97.8125 98.1875C97.964 98.4072 98.1572 98.5909 98.392 98.7386C98.6269 98.8826 98.8731 99.0019 99.1307 99.0966C99.3883 99.1875 99.625 99.2614 99.8409 99.3182L101.023 99.6364C101.326 99.7159 101.663 99.8258 102.034 99.9659C102.409 100.106 102.767 100.297 103.108 100.54C103.453 100.778 103.737 101.085 103.96 101.46C104.184 101.835 104.295 102.295 104.295 102.841C104.295 103.47 104.131 104.038 103.801 104.545C103.475 105.053 102.998 105.456 102.369 105.756C101.744 106.055 100.985 106.205 100.091 106.205C99.2576 106.205 98.536 106.07 97.9261 105.801C97.3201 105.532 96.8428 105.157 96.4943 104.676C96.1496 104.195 95.9545 103.636 95.9091 103H97.3636C97.4015 103.439 97.5492 103.803 97.8068 104.091C98.0682 104.375 98.3977 104.587 98.7955 104.727C99.197 104.864 99.6288 104.932 100.091 104.932C100.629 104.932 101.112 104.845 101.54 104.67C101.968 104.492 102.307 104.246 102.557 103.932C102.807 103.614 102.932 103.242 102.932 102.818C102.932 102.432 102.824 102.117 102.608 101.875C102.392 101.633 102.108 101.436 101.756 101.284C101.403 101.133 101.023 101 100.614 100.886L99.1818 100.477C98.2727 100.216 97.553 99.8428 97.0227 99.358C96.4924 98.8731 96.2273 98.2386 96.2273 97.4545C96.2273 96.803 96.4034 96.2348 96.7557 95.75C97.1117 95.2614 97.589 94.8826 98.1875 94.6136C98.7898 94.3409 99.4621 94.2045 100.205 94.2045C100.955 94.2045 101.621 94.339 102.205 94.608C102.788 94.8731 103.25 95.2367 103.591 95.6989C103.936 96.161 104.117 96.6856 104.136 97.2727H102.773ZM110.226 97.2727V98.4091H105.703V97.2727H110.226ZM107.021 95.1818H108.362V103.5C108.362 103.879 108.417 104.163 108.527 104.352C108.641 104.538 108.785 104.663 108.959 104.727C109.137 104.788 109.324 104.818 109.521 104.818C109.669 104.818 109.79 104.811 109.885 104.795C109.98 104.777 110.055 104.761 110.112 104.75L110.385 105.955C110.294 105.989 110.167 106.023 110.004 106.057C109.841 106.095 109.635 106.114 109.385 106.114C109.006 106.114 108.635 106.032 108.271 105.869C107.911 105.706 107.612 105.458 107.374 105.125C107.139 104.792 107.021 104.371 107.021 103.864V95.1818ZM115.695 106.182C114.907 106.182 114.215 105.994 113.621 105.619C113.03 105.244 112.568 104.72 112.234 104.045C111.905 103.371 111.74 102.583 111.74 101.682C111.74 100.773 111.905 99.9792 112.234 99.3011C112.568 98.6231 113.03 98.0966 113.621 97.7216C114.215 97.3466 114.907 97.1591 115.695 97.1591C116.482 97.1591 117.172 97.3466 117.763 97.7216C118.357 98.0966 118.82 98.6231 119.149 99.3011C119.482 99.9792 119.649 100.773 119.649 101.682C119.649 102.583 119.482 103.371 119.149 104.045C118.82 104.72 118.357 105.244 117.763 105.619C117.172 105.994 116.482 106.182 115.695 106.182ZM115.695 104.977C116.293 104.977 116.786 104.824 117.172 104.517C117.558 104.21 117.844 103.807 118.03 103.307C118.215 102.807 118.308 102.265 118.308 101.682C118.308 101.098 118.215 100.555 118.03 100.051C117.844 99.5473 117.558 99.1402 117.172 98.8295C116.786 98.5189 116.293 98.3636 115.695 98.3636C115.096 98.3636 114.604 98.5189 114.217 98.8295C113.831 99.1402 113.545 99.5473 113.359 100.051C113.174 100.555 113.081 101.098 113.081 101.682C113.081 102.265 113.174 102.807 113.359 103.307C113.545 103.807 113.831 104.21 114.217 104.517C114.604 104.824 115.096 104.977 115.695 104.977ZM121.696 106V97.2727H122.991V98.5909H123.082C123.241 98.1591 123.529 97.8087 123.946 97.5398C124.363 97.2708 124.832 97.1364 125.355 97.1364C125.454 97.1364 125.577 97.1383 125.724 97.142C125.872 97.1458 125.984 97.1515 126.06 97.1591V98.5227C126.014 98.5114 125.91 98.4943 125.747 98.4716C125.588 98.4451 125.42 98.4318 125.241 98.4318C124.817 98.4318 124.438 98.5208 124.105 98.6989C123.776 98.8731 123.514 99.1155 123.321 99.4261C123.132 99.733 123.037 100.083 123.037 100.477V106H121.696ZM131.043 106.182C130.202 106.182 129.476 105.996 128.866 105.625C128.26 105.25 127.793 104.727 127.463 104.057C127.137 103.383 126.974 102.598 126.974 101.705C126.974 100.811 127.137 100.023 127.463 99.3409C127.793 98.6553 128.251 98.1212 128.838 97.7386C129.429 97.3523 130.118 97.1591 130.906 97.1591C131.361 97.1591 131.81 97.2348 132.253 97.3864C132.696 97.5379 133.099 97.7841 133.463 98.125C133.827 98.4621 134.116 98.9091 134.332 99.4659C134.548 100.023 134.656 100.708 134.656 101.523V102.091H127.929V100.932H133.293C133.293 100.439 133.194 100 132.997 99.6136C132.804 99.2273 132.527 98.9223 132.168 98.6989C131.812 98.4754 131.391 98.3636 130.906 98.3636C130.372 98.3636 129.91 98.4962 129.52 98.7614C129.134 99.0227 128.836 99.3636 128.628 99.7841C128.42 100.205 128.315 100.655 128.315 101.136V101.909C128.315 102.568 128.429 103.127 128.656 103.585C128.887 104.04 129.207 104.386 129.616 104.625C130.026 104.86 130.501 104.977 131.043 104.977C131.395 104.977 131.713 104.928 131.997 104.83C132.285 104.727 132.533 104.576 132.741 104.375C132.95 104.17 133.111 103.917 133.224 103.614L134.52 103.977C134.384 104.417 134.154 104.803 133.832 105.136C133.51 105.466 133.113 105.723 132.639 105.909C132.166 106.091 131.634 106.182 131.043 106.182ZM141.378 106V94.3636H145.31C146.223 94.3636 146.969 94.5284 147.548 94.858C148.132 95.1837 148.563 95.625 148.844 96.1818C149.124 96.7386 149.264 97.3598 149.264 98.0455C149.264 98.7311 149.124 99.3542 148.844 99.9148C148.567 100.475 148.139 100.922 147.56 101.256C146.98 101.585 146.238 101.75 145.332 101.75H142.514V100.5H145.287C145.912 100.5 146.414 100.392 146.793 100.176C147.171 99.9602 147.446 99.6686 147.616 99.3011C147.791 98.9299 147.878 98.5114 147.878 98.0455C147.878 97.5795 147.791 97.1629 147.616 96.7955C147.446 96.428 147.17 96.1402 146.787 95.9318C146.404 95.7197 145.897 95.6136 145.264 95.6136H142.787V106H141.378ZM151.352 106V97.2727H152.693V106H151.352ZM152.034 95.8182C151.773 95.8182 151.547 95.7292 151.358 95.5511C151.172 95.3731 151.08 95.1591 151.08 94.9091C151.08 94.6591 151.172 94.4451 151.358 94.267C151.547 94.089 151.773 94 152.034 94C152.295 94 152.519 94.089 152.705 94.267C152.894 94.4451 152.989 94.6591 152.989 94.9091C152.989 95.1591 152.894 95.3731 152.705 95.5511C152.519 95.7292 152.295 95.8182 152.034 95.8182ZM158.695 106.182C157.876 106.182 157.172 105.989 156.581 105.602C155.99 105.216 155.536 104.684 155.217 104.006C154.899 103.328 154.74 102.553 154.74 101.682C154.74 100.795 154.903 100.013 155.229 99.3352C155.558 98.6534 156.017 98.1212 156.604 97.7386C157.195 97.3523 157.884 97.1591 158.672 97.1591C159.286 97.1591 159.839 97.2727 160.331 97.5C160.823 97.7273 161.227 98.0455 161.541 98.4545C161.856 98.8636 162.051 99.3409 162.126 99.8864H160.786C160.683 99.4886 160.456 99.1364 160.104 98.8295C159.755 98.5189 159.286 98.3636 158.695 98.3636C158.172 98.3636 157.714 98.5 157.32 98.7727C156.929 99.0417 156.625 99.4223 156.405 99.9148C156.189 100.403 156.081 100.977 156.081 101.636C156.081 102.311 156.187 102.898 156.399 103.398C156.615 103.898 156.918 104.286 157.308 104.562C157.702 104.839 158.164 104.977 158.695 104.977C159.043 104.977 159.359 104.917 159.643 104.795C159.928 104.674 160.168 104.5 160.365 104.273C160.562 104.045 160.702 103.773 160.786 103.455H162.126C162.051 103.97 161.863 104.434 161.564 104.847C161.268 105.256 160.876 105.581 160.388 105.824C159.903 106.062 159.339 106.182 158.695 106.182ZM167.882 97.2727V98.4091H163.359V97.2727H167.882ZM164.678 95.1818H166.018V103.5C166.018 103.879 166.073 104.163 166.183 104.352C166.297 104.538 166.441 104.663 166.615 104.727C166.793 104.788 166.981 104.818 167.178 104.818C167.325 104.818 167.446 104.811 167.541 104.795C167.636 104.777 167.712 104.761 167.768 104.75L168.041 105.955C167.95 105.989 167.823 106.023 167.661 106.057C167.498 106.095 167.291 106.114 167.041 106.114C166.662 106.114 166.291 106.032 165.928 105.869C165.568 105.706 165.268 105.458 165.03 105.125C164.795 104.792 164.678 104.371 164.678 103.864V95.1818ZM175.399 102.432V97.2727H176.74V106H175.399V104.523H175.308C175.104 104.966 174.786 105.343 174.354 105.653C173.922 105.96 173.376 106.114 172.717 106.114C172.172 106.114 171.687 105.994 171.263 105.756C170.839 105.513 170.505 105.15 170.263 104.665C170.02 104.176 169.899 103.561 169.899 102.818V97.2727H171.24V102.727C171.24 103.364 171.418 103.871 171.774 104.25C172.134 104.629 172.592 104.818 173.149 104.818C173.482 104.818 173.821 104.733 174.166 104.562C174.515 104.392 174.806 104.131 175.041 103.778C175.28 103.426 175.399 102.977 175.399 102.432ZM179.196 106V97.2727H180.491V98.5909H180.582C180.741 98.1591 181.029 97.8087 181.446 97.5398C181.863 97.2708 182.332 97.1364 182.855 97.1364C182.954 97.1364 183.077 97.1383 183.224 97.142C183.372 97.1458 183.484 97.1515 183.56 97.1591V98.5227C183.514 98.5114 183.41 98.4943 183.247 98.4716C183.088 98.4451 182.92 98.4318 182.741 98.4318C182.317 98.4318 181.938 98.5208 181.605 98.6989C181.276 98.8731 181.014 99.1155 180.821 99.4261C180.632 99.733 180.537 100.083 180.537 100.477V106H179.196ZM188.543 106.182C187.702 106.182 186.976 105.996 186.366 105.625C185.76 105.25 185.293 104.727 184.963 104.057C184.637 103.383 184.474 102.598 184.474 101.705C184.474 100.811 184.637 100.023 184.963 99.3409C185.293 98.6553 185.751 98.1212 186.338 97.7386C186.929 97.3523 187.618 97.1591 188.406 97.1591C188.861 97.1591 189.31 97.2348 189.753 97.3864C190.196 97.5379 190.599 97.7841 190.963 98.125C191.327 98.4621 191.616 98.9091 191.832 99.4659C192.048 100.023 192.156 100.708 192.156 101.523V102.091H185.429V100.932H190.793C190.793 100.439 190.694 100 190.497 99.6136C190.304 99.2273 190.027 98.9223 189.668 98.6989C189.312 98.4754 188.891 98.3636 188.406 98.3636C187.872 98.3636 187.41 98.4962 187.02 98.7614C186.634 99.0227 186.336 99.3636 186.128 99.7841C185.92 100.205 185.815 100.655 185.815 101.136V101.909C185.815 102.568 185.929 103.127 186.156 103.585C186.387 104.04 186.707 104.386 187.116 104.625C187.526 104.86 188.001 104.977 188.543 104.977C188.895 104.977 189.213 104.928 189.497 104.83C189.785 104.727 190.033 104.576 190.241 104.375C190.45 104.17 190.611 103.917 190.724 103.614L192.02 103.977C191.884 104.417 191.654 104.803 191.332 105.136C191.01 105.466 190.613 105.723 190.139 105.909C189.666 106.091 189.134 106.182 188.543 106.182ZM200.378 99.2273L199.173 99.5682C199.098 99.3674 198.986 99.1723 198.838 98.983C198.694 98.7898 198.497 98.6307 198.247 98.5057C197.997 98.3807 197.677 98.3182 197.287 98.3182C196.753 98.3182 196.308 98.4413 195.952 98.6875C195.599 98.9299 195.423 99.2386 195.423 99.6136C195.423 99.947 195.545 100.21 195.787 100.403C196.029 100.597 196.408 100.758 196.923 100.886L198.219 101.205C198.999 101.394 199.58 101.684 199.963 102.074C200.346 102.46 200.537 102.958 200.537 103.568C200.537 104.068 200.393 104.515 200.105 104.909C199.821 105.303 199.423 105.614 198.912 105.841C198.401 106.068 197.806 106.182 197.128 106.182C196.238 106.182 195.501 105.989 194.918 105.602C194.334 105.216 193.965 104.652 193.81 103.909L195.082 103.591C195.204 104.061 195.433 104.413 195.77 104.648C196.111 104.883 196.556 105 197.105 105C197.73 105 198.226 104.867 198.594 104.602C198.965 104.333 199.151 104.011 199.151 103.636C199.151 103.333 199.045 103.08 198.832 102.875C198.62 102.667 198.295 102.511 197.855 102.409L196.401 102.068C195.601 101.879 195.014 101.585 194.639 101.188C194.268 100.786 194.082 100.284 194.082 99.6818C194.082 99.1894 194.221 98.7538 194.497 98.375C194.777 97.9962 195.158 97.6989 195.639 97.483C196.124 97.267 196.673 97.1591 197.287 97.1591C198.151 97.1591 198.829 97.3485 199.321 97.7273C199.817 98.1061 200.17 98.6061 200.378 99.2273Z" fill="#6B6B6B"/>
</svg>
