<svg width="50" height="50" viewBox="0 0 50 50" fill="none" xmlns="http://www.w3.org/2000/svg">
<path d="M39.5833 6.25H10.4167C8.11548 6.25 6.25 8.11548 6.25 10.4167V39.5833C6.25 41.8845 8.11548 43.75 10.4167 43.75H39.5833C41.8845 43.75 43.75 41.8845 43.75 39.5833V10.4167C43.75 8.11548 41.8845 6.25 39.5833 6.25Z" stroke="#FF9A62" stroke-width="4.16667" stroke-linecap="round" stroke-linejoin="round"/>
<path d="M6.25 18.7487C6.25 17.6436 6.68899 16.5838 7.47039 15.8024C8.25179 15.021 9.3116 14.582 10.4167 14.582H39.5833C40.6884 14.582 41.7482 15.021 42.5296 15.8024C43.311 16.5838 43.75 17.6436 43.75 18.7487M6.25 22.9154H12.5C14.1667 22.9154 15.8333 23.5404 16.875 24.7904L19.1667 26.6654C22.5 29.9987 27.7083 29.9987 31.0417 26.6654L33.3333 24.7904C34.375 23.7487 36.0417 22.9154 37.7083 22.9154H43.75" stroke="#FF9A62" stroke-width="4.16667" stroke-linecap="round" stroke-linejoin="round"/>
</svg>
