<svg width="28" height="29" viewBox="0 0 28 29" fill="none" xmlns="http://www.w3.org/2000/svg">
<path d="M21.4375 15.3315C21.4375 15.6777 21.3349 16.016 21.1426 16.3038C20.9503 16.5916 20.677 16.8159 20.3572 16.9483C20.0375 17.0808 19.6856 17.1154 19.3461 17.0479C19.0067 16.9804 18.6948 16.8137 18.4501 16.569C18.2054 16.3242 18.0387 16.0124 17.9712 15.673C17.9036 15.3335 17.9383 14.9816 18.0708 14.6618C18.2032 14.3421 18.4275 14.0688 18.7153 13.8765C19.0031 13.6842 19.3414 13.5815 19.6875 13.5815C20.1517 13.5815 20.5968 13.7659 20.925 14.0941C21.2532 14.4223 21.4375 14.8674 21.4375 15.3315ZM25.8125 11.8315V20.5815C25.8125 21.5098 25.4438 22.4 24.7874 23.0564C24.131 23.7128 23.2408 24.0815 22.3125 24.0815H6.56254C5.63429 24.0815 4.74405 23.7128 4.08767 23.0564C3.43129 22.4 3.06254 21.5098 3.06254 20.5815V7.55717C3.04908 7.08914 3.12966 6.62318 3.29952 6.18685C3.46937 5.75053 3.72505 5.35272 4.0514 5.01699C4.37776 4.68125 4.76816 4.4144 5.19949 4.23225C5.63083 4.0501 6.09433 3.95635 6.56254 3.95654H21C21.3481 3.95654 21.682 4.09482 21.9281 4.34097C22.1743 4.58711 22.3125 4.92095 22.3125 5.26904C22.3125 5.61714 22.1743 5.95098 21.9281 6.19712C21.682 6.44326 21.3481 6.58154 21 6.58154H6.56254C6.4452 6.58148 6.32905 6.60502 6.22099 6.65076C6.11294 6.6965 6.01518 6.76351 5.93355 6.8478C5.85192 6.93208 5.78807 7.03193 5.74581 7.14139C5.70354 7.25086 5.68373 7.3677 5.68754 7.48498V7.49373C5.70592 7.72541 5.81224 7.94127 5.9847 8.09706C6.15717 8.25284 6.3827 8.33674 6.61504 8.33154H22.3125C23.2408 8.33154 24.131 8.70029 24.7874 9.35667C25.4438 10.013 25.8125 10.9033 25.8125 11.8315ZM23.1875 11.8315C23.1875 11.5995 23.0954 11.3769 22.9313 11.2128C22.7672 11.0487 22.5446 10.9565 22.3125 10.9565H6.61504C6.30212 10.9567 5.99045 10.917 5.68754 10.8384V20.5815C5.68754 20.8136 5.77973 21.0362 5.94382 21.2003C6.10792 21.3644 6.33048 21.4565 6.56254 21.4565H22.3125C22.5446 21.4565 22.7672 21.3644 22.9313 21.2003C23.0954 21.0362 23.1875 20.8136 23.1875 20.5815V11.8315Z" fill="#333333"/>
</svg>
