<svg width="94" height="14" viewBox="0 0 94 14" fill="none" xmlns="http://www.w3.org/2000/svg">
<path d="M3.61848 9.28977V2.56818H4.95584V9.28977H3.61848ZM0.928854 6.59517V5.26278H7.65045V6.59517H0.928854ZM14.3263 11H12.6956L16.3597 0.818182H18.1345L21.7986 11H20.1679L17.2894 2.66761H17.2098L14.3263 11ZM14.5997 7.01278H19.8895V8.3054H14.5997V7.01278ZM25.7312 11.1491C25.1148 11.1491 24.5646 10.9917 24.0807 10.6768C23.6001 10.3587 23.2222 9.90625 22.9471 9.3196C22.6754 8.72964 22.5395 8.02202 22.5395 7.19673C22.5395 6.37145 22.677 5.66548 22.9521 5.07884C23.2305 4.49219 23.6117 4.04309 24.0956 3.73153C24.5795 3.41998 25.128 3.2642 25.7412 3.2642C26.2151 3.2642 26.5963 3.34375 26.8846 3.50284C27.1763 3.65862 27.4017 3.84091 27.5608 4.04972C27.7232 4.25852 27.8491 4.44247 27.9386 4.60156H28.0281V0.818182H29.5146V11H28.0629V9.81179H27.9386C27.8491 9.9742 27.7199 10.1598 27.5508 10.3686C27.3851 10.5774 27.1564 10.7597 26.8648 10.9155C26.5731 11.0713 26.1953 11.1491 25.7312 11.1491ZM26.0594 9.88139C26.4869 9.88139 26.8482 9.7687 27.1432 9.54332C27.4415 9.31463 27.6668 8.99811 27.8193 8.59375C27.9751 8.18939 28.053 7.71875 28.053 7.18182C28.053 6.65151 27.9767 6.1875 27.8243 5.78977C27.6718 5.39205 27.4481 5.08215 27.1531 4.86009C26.8581 4.63802 26.4935 4.52699 26.0594 4.52699C25.6119 4.52699 25.2391 4.64299 24.9408 4.875C24.6425 5.10701 24.4171 5.42353 24.2646 5.82457C24.1155 6.22562 24.0409 6.67803 24.0409 7.18182C24.0409 7.69223 24.1171 8.15128 24.2696 8.55895C24.4221 8.96662 24.6474 9.28977 24.9457 9.52841C25.2473 9.76373 25.6185 9.88139 26.0594 9.88139ZM34.3409 11.1491C33.7244 11.1491 33.1742 10.9917 32.6903 10.6768C32.2098 10.3587 31.8319 9.90625 31.5568 9.3196C31.285 8.72964 31.1491 8.02202 31.1491 7.19673C31.1491 6.37145 31.2867 5.66548 31.5618 5.07884C31.8402 4.49219 32.2214 4.04309 32.7053 3.73153C33.1892 3.41998 33.7377 3.2642 34.3509 3.2642C34.8248 3.2642 35.206 3.34375 35.4943 3.50284C35.786 3.65862 36.0114 3.84091 36.1705 4.04972C36.3329 4.25852 36.4588 4.44247 36.5483 4.60156H36.6378V0.818182H38.1243V11H36.6726V9.81179H36.5483C36.4588 9.9742 36.3295 10.1598 36.1605 10.3686C35.9948 10.5774 35.7661 10.7597 35.4744 10.9155C35.1828 11.0713 34.8049 11.1491 34.3409 11.1491ZM34.669 9.88139C35.0966 9.88139 35.4579 9.7687 35.7528 9.54332C36.0511 9.31463 36.2765 8.99811 36.429 8.59375C36.5848 8.18939 36.6626 7.71875 36.6626 7.18182C36.6626 6.65151 36.5864 6.1875 36.434 5.78977C36.2815 5.39205 36.0578 5.08215 35.7628 4.86009C35.4678 4.63802 35.1032 4.52699 34.669 4.52699C34.2216 4.52699 33.8487 4.64299 33.5504 4.875C33.2521 5.10701 33.0268 5.42353 32.8743 5.82457C32.7251 6.22562 32.6506 6.67803 32.6506 7.18182C32.6506 7.69223 32.7268 8.15128 32.8793 8.55895C33.0317 8.96662 33.2571 9.28977 33.5554 9.52841C33.857 9.76373 34.2282 9.88139 34.669 9.88139ZM52.219 4.12926H50.6679C50.6082 3.79782 50.4972 3.50615 50.3348 3.25426C50.1724 3.00237 49.9735 2.78859 49.7382 2.61293C49.5028 2.43726 49.2394 2.30469 48.9477 2.2152C48.6593 2.12571 48.3528 2.08097 48.0279 2.08097C47.4413 2.08097 46.916 2.22846 46.4519 2.52344C45.9912 2.81842 45.6267 3.25095 45.3582 3.82102C45.093 4.3911 44.9605 5.08712 44.9605 5.90909C44.9605 6.73769 45.093 7.43703 45.3582 8.0071C45.6267 8.57718 45.9929 9.00805 46.4569 9.29972C46.9209 9.59138 47.4429 9.73722 48.023 9.73722C48.3445 9.73722 48.6494 9.69413 48.9377 9.60795C49.2294 9.51847 49.4929 9.38755 49.7282 9.2152C49.9635 9.04285 50.1624 8.83239 50.3248 8.58381C50.4905 8.33191 50.6049 8.04356 50.6679 7.71875L52.219 7.72372C52.1361 8.22419 51.9754 8.6849 51.7367 9.10582C51.5014 9.52344 51.1982 9.88471 50.8269 10.1896C50.459 10.4912 50.0381 10.7249 49.5642 10.8906C49.0902 11.0563 48.5732 11.1392 48.013 11.1392C47.1314 11.1392 46.3459 10.9304 45.6565 10.5128C44.9671 10.0919 44.4235 9.49029 44.0258 8.7081C43.6314 7.9259 43.4342 6.9929 43.4342 5.90909C43.4342 4.82197 43.6331 3.88897 44.0308 3.11008C44.4285 2.32789 44.9721 1.72798 45.6615 1.31037C46.3509 0.889441 47.1347 0.678977 48.013 0.678977C48.5533 0.678977 49.0571 0.756865 49.5244 0.912642C49.995 1.0651 50.4176 1.29048 50.7921 1.58878C51.1667 1.88376 51.4766 2.24503 51.7218 2.67258C51.9671 3.09683 52.1328 3.58239 52.219 4.12926ZM57.0005 11.1541C56.2846 11.1541 55.6599 10.9901 55.1262 10.6619C54.5926 10.3338 54.1783 9.87476 53.8833 9.2848C53.5884 8.69484 53.4409 8.00544 53.4409 7.21662C53.4409 6.42448 53.5884 5.73177 53.8833 5.13849C54.1783 4.54522 54.5926 4.08452 55.1262 3.75639C55.6599 3.42827 56.2846 3.2642 57.0005 3.2642C57.7164 3.2642 58.3412 3.42827 58.8748 3.75639C59.4084 4.08452 59.8227 4.54522 60.1177 5.13849C60.4127 5.73177 60.5602 6.42448 60.5602 7.21662C60.5602 8.00544 60.4127 8.69484 60.1177 9.2848C59.8227 9.87476 59.4084 10.3338 58.8748 10.6619C58.3412 10.9901 57.7164 11.1541 57.0005 11.1541ZM57.0055 9.90625C57.4695 9.90625 57.854 9.78362 58.1589 9.53835C58.4638 9.29309 58.6892 8.96662 58.835 8.55895C58.9842 8.15128 59.0588 7.70218 59.0588 7.21165C59.0588 6.72443 58.9842 6.27699 58.835 5.86932C58.6892 5.45833 58.4638 5.12855 58.1589 4.87997C57.854 4.63139 57.4695 4.5071 57.0055 4.5071C56.5382 4.5071 56.1504 4.63139 55.8422 4.87997C55.5372 5.12855 55.3102 5.45833 55.161 5.86932C55.0152 6.27699 54.9423 6.72443 54.9423 7.21165C54.9423 7.70218 55.0152 8.15128 55.161 8.55895C55.3102 8.96662 55.5372 9.29309 55.8422 9.53835C56.1504 9.78362 56.5382 9.90625 57.0055 9.90625ZM66.9028 7.8331V3.36364H68.3943V11H66.9327V9.67756H66.8531C66.6774 10.0852 66.3957 10.425 66.0079 10.6967C65.6235 10.9652 65.1445 11.0994 64.5711 11.0994C64.0806 11.0994 63.6464 10.9917 63.2686 10.7763C62.8941 10.5575 62.5991 10.2344 62.3836 9.80682C62.1715 9.37926 62.0655 8.85062 62.0655 8.22088V3.36364H63.552V8.0419C63.552 8.56226 63.6961 8.97656 63.9845 9.2848C64.2729 9.59304 64.6474 9.74716 65.1081 9.74716C65.3865 9.74716 65.6632 9.67756 65.9383 9.53835C66.2167 9.39915 66.4471 9.18868 66.6294 8.90696C66.815 8.62524 66.9061 8.26728 66.9028 7.8331ZM70.2376 13.8636V3.36364H71.6893V4.60156H71.8136C71.8998 4.44247 72.0241 4.25852 72.1865 4.04972C72.3489 3.84091 72.5743 3.65862 72.8626 3.50284C73.151 3.34375 73.5321 3.2642 74.0061 3.2642C74.6226 3.2642 75.1728 3.41998 75.6567 3.73153C76.1406 4.04309 76.5201 4.49219 76.7952 5.07884C77.0736 5.66548 77.2128 6.37145 77.2128 7.19673C77.2128 8.02202 77.0752 8.72964 76.8001 9.3196C76.525 9.90625 76.1472 10.3587 75.6666 10.6768C75.186 10.9917 74.6375 11.1491 74.021 11.1491C73.557 11.1491 73.1775 11.0713 72.8825 10.9155C72.5909 10.7597 72.3622 10.5774 72.1964 10.3686C72.0307 10.1598 71.9031 9.9742 71.8136 9.81179H71.7241V13.8636H70.2376ZM71.6943 7.18182C71.6943 7.71875 71.7722 8.18939 71.928 8.59375C72.0837 8.99811 72.3091 9.31463 72.6041 9.54332C72.8991 9.7687 73.2604 9.88139 73.6879 9.88139C74.132 9.88139 74.5033 9.76373 74.8016 9.52841C75.0998 9.28977 75.3252 8.96662 75.4777 8.55895C75.6335 8.15128 75.7114 7.69223 75.7114 7.18182C75.7114 6.67803 75.6351 6.22562 75.4827 5.82457C75.3335 5.42353 75.1081 5.10701 74.8065 4.875C74.5082 4.64299 74.1354 4.52699 73.6879 4.52699C73.257 4.52699 72.8925 4.63802 72.5942 4.86009C72.2992 5.08215 72.0755 5.39205 71.923 5.78977C71.7705 6.1875 71.6943 6.65151 71.6943 7.18182ZM81.9409 11.1541C81.225 11.1541 80.6002 10.9901 80.0666 10.6619C79.533 10.3338 79.1187 9.87476 78.8237 9.2848C78.5287 8.69484 78.3812 8.00544 78.3812 7.21662C78.3812 6.42448 78.5287 5.73177 78.8237 5.13849C79.1187 4.54522 79.533 4.08452 80.0666 3.75639C80.6002 3.42827 81.225 3.2642 81.9409 3.2642C82.6568 3.2642 83.2815 3.42827 83.8152 3.75639C84.3488 4.08452 84.7631 4.54522 85.0581 5.13849C85.353 5.73177 85.5005 6.42448 85.5005 7.21662C85.5005 8.00544 85.353 8.69484 85.0581 9.2848C84.7631 9.87476 84.3488 10.3338 83.8152 10.6619C83.2815 10.9901 82.6568 11.1541 81.9409 11.1541ZM81.9458 9.90625C82.4099 9.90625 82.7943 9.78362 83.0993 9.53835C83.4042 9.29309 83.6296 8.96662 83.7754 8.55895C83.9245 8.15128 83.9991 7.70218 83.9991 7.21165C83.9991 6.72443 83.9245 6.27699 83.7754 5.86932C83.6296 5.45833 83.4042 5.12855 83.0993 4.87997C82.7943 4.63139 82.4099 4.5071 81.9458 4.5071C81.4785 4.5071 81.0907 4.63139 80.7825 4.87997C80.4776 5.12855 80.2505 5.45833 80.1014 5.86932C79.9556 6.27699 79.8826 6.72443 79.8826 7.21165C79.8826 7.70218 79.9556 8.15128 80.1014 8.55895C80.2505 8.96662 80.4776 9.29309 80.7825 9.53835C81.0907 9.78362 81.4785 9.90625 81.9458 9.90625ZM88.4923 6.46591V11H87.0058V3.36364H88.4327V4.60653H88.5271C88.7028 4.20218 88.9779 3.87737 89.3524 3.6321C89.7302 3.38684 90.2059 3.2642 90.7792 3.2642C91.2996 3.2642 91.7553 3.37358 92.1464 3.59233C92.5375 3.80777 92.8408 4.12926 93.0562 4.55682C93.2717 4.98437 93.3794 5.51302 93.3794 6.14276V11H91.8929V6.32173C91.8929 5.76823 91.7487 5.3357 91.4604 5.02415C91.172 4.70928 90.7759 4.55185 90.2721 4.55185C89.9274 4.55185 89.6209 4.62642 89.3524 4.77557C89.0872 4.92472 88.8768 5.14347 88.721 5.43182C88.5685 5.71686 88.4923 6.06155 88.4923 6.46591Z" fill="black"/>
</svg>
