<svg width="63" height="63" viewBox="0 0 63 63" fill="none" xmlns="http://www.w3.org/2000/svg">
<g clip-path="url(#clip0_351_24264)">
<path d="M41.6063 21.4375C41.571 21.4375 41.5358 21.4411 41.5013 21.448C39.7163 21.9467 40.0759 24.4615 36.8261 24.6768H36.5112C36.4653 24.6759 36.4195 24.6803 36.3746 24.6899H36.372C36.2337 24.7231 36.1107 24.8021 36.023 24.9141C35.9353 25.0261 35.8881 25.1645 35.889 25.3067V28.168C35.889 28.5197 36.1673 28.8006 36.5112 28.8006H38.2043V40.936C38.2043 41.2825 38.4773 41.5607 38.8159 41.5607H41.5931C41.757 41.5587 41.9133 41.4918 42.028 41.3747C42.1426 41.2576 42.2062 41.0999 42.2048 40.936V28.8006H43.7798C44.121 28.8006 44.3993 28.5197 44.3993 28.168V25.3067C44.4 25.1413 44.3353 24.9822 44.2192 24.8642C44.1032 24.7462 43.9453 24.6788 43.7798 24.6768H42.1733V22.0124C42.174 21.9372 42.1599 21.8627 42.1317 21.793C42.1036 21.7233 42.062 21.6598 42.0094 21.6062C41.9567 21.5526 41.894 21.5098 41.8249 21.4804C41.7557 21.451 41.6814 21.4382 41.6063 21.4375ZM52.6969 24.5087C51.6522 24.5087 50.6967 24.9025 49.9617 25.5456V25.2201C49.9524 25.0627 49.8839 24.9146 49.77 24.8055C49.6561 24.6964 49.5051 24.6345 49.3474 24.6321H46.5387C46.3725 24.6349 46.2141 24.7032 46.0981 24.8222C45.9821 24.9412 45.9177 25.1012 45.9192 25.2674V40.8074C45.9177 40.9736 45.9821 41.1336 46.0981 41.2526C46.2141 41.3715 46.3725 41.4399 46.5387 41.4426H49.3474C49.6624 41.4426 49.917 41.2037 49.959 40.894V29.7378C49.9483 29.4671 50.0444 29.2031 50.2266 29.0028C50.4088 28.8024 50.6625 28.6817 50.9329 28.6667H51.4474C51.6645 28.6837 51.8714 28.766 52.0407 28.903C52.1627 29.0052 52.2603 29.1335 52.3262 29.2784C52.3921 29.4233 52.4246 29.5812 52.4213 29.7404V40.4346L52.4318 40.8415C52.4311 41.0077 52.4961 41.1674 52.6126 41.2859C52.7291 41.4044 52.8877 41.472 53.0539 41.4741H55.8627C56.0232 41.4715 56.1767 41.4075 56.2914 41.2952C56.4062 41.1829 56.4735 41.0308 56.4795 40.8704L56.4769 29.7246C56.4769 29.3571 56.6396 29.0264 56.9336 28.8321C57.0875 28.7304 57.2644 28.6691 57.4482 28.6536H57.9679C58.5716 28.7061 58.9391 29.1786 58.9391 29.7246C58.9523 33.3891 58.9497 37.0746 58.9497 40.8126C58.9489 40.9788 59.0139 41.1385 59.1305 41.257C59.247 41.3755 59.4056 41.4432 59.5718 41.4452H62.3805C62.7218 41.4452 63 41.1617 63 40.8126V28.8872C63 28.0735 62.9108 27.727 62.79 27.3726C62.5103 26.5419 61.9777 25.8194 61.267 25.3064C60.5562 24.7933 59.7028 24.5154 58.8263 24.5114H58.7869C58.2199 24.5118 57.659 24.6285 57.1389 24.8543C56.6188 25.08 56.1505 25.41 55.7629 25.8239C54.999 25.0154 53.9254 24.5114 52.7363 24.5114L52.6969 24.5087ZM0.609023 24.6741C0.528357 24.6748 0.448617 24.6914 0.374355 24.7229C0.300094 24.7544 0.232765 24.8002 0.176213 24.8577C0.119662 24.9153 0.0749954 24.9834 0.0447645 25.0582C0.0145336 25.1329 -0.000669765 25.213 2.26287e-05 25.2936V40.8441C2.26287e-05 41.1906 0.252023 41.4689 0.567023 41.4767H3.42827C3.76952 41.4767 4.0504 41.1959 4.0504 40.8467L4.0609 36.4945H6.74627C8.9959 36.4945 10.5604 34.9064 10.5604 32.6069V28.5696C10.5604 26.2675 8.9959 24.6741 6.74627 24.6741H0.609023ZM24.318 24.6741C24.2356 24.6748 24.1542 24.6917 24.0783 24.7239C24.0025 24.756 23.9337 24.8028 23.8759 24.8616C23.8182 24.9203 23.7725 24.9899 23.7416 25.0663C23.7107 25.1426 23.6952 25.2244 23.6959 25.3067V31.7905C23.6959 34.258 25.4205 36.0115 27.8408 36.0115H29.6126C29.6126 36.0115 29.6546 36.0115 29.7098 36.022C29.8715 36.042 30.0202 36.1206 30.1276 36.2431C30.2351 36.3655 30.2937 36.5232 30.2925 36.6861C30.2925 37.0274 30.0405 37.303 29.7176 37.345L29.6704 37.3555L28.875 37.3713H25.5649C25.3994 37.3733 25.2415 37.4407 25.1254 37.5587C25.0094 37.6767 24.9447 37.8358 24.9454 38.0012V40.8625C24.944 41.0287 25.0083 41.1887 25.1243 41.3077C25.2404 41.4267 25.3987 41.495 25.5649 41.4977H30.1586C32.5736 41.4977 34.2983 39.7416 34.2983 37.2767V25.3067C34.299 25.1413 34.2343 24.9822 34.1182 24.8642C34.0022 24.7462 33.8442 24.6788 33.6788 24.6768H30.87C30.7045 24.6788 30.5466 24.7462 30.4306 24.8642C30.3145 24.9822 30.2498 25.1413 30.2505 25.3067C30.2374 27.3726 30.2505 29.3099 30.2505 31.2261C30.2485 31.3995 30.1787 31.5653 30.0561 31.6879C29.9334 31.8105 29.7677 31.8803 29.5943 31.8824H28.4156C28.24 31.8803 28.0723 31.8087 27.9493 31.6832C27.8263 31.5578 27.758 31.3887 27.7594 31.213C27.7725 29.2337 27.7463 27.2755 27.7463 25.3067C27.747 25.1413 27.6823 24.9822 27.5662 24.8642C27.4502 24.7462 27.2922 24.6788 27.1268 24.6768L24.318 24.6741ZM13.8075 24.6899C13.7275 24.6878 13.6479 24.7015 13.5732 24.7302C13.4985 24.7588 13.4302 24.802 13.3722 24.857C13.3142 24.9121 13.2676 24.9781 13.2351 25.0512C13.2026 25.1243 13.1848 25.2031 13.1828 25.2831V27.9685C13.1828 28.315 13.4794 28.5985 13.8443 28.5985H17.5534C17.8474 28.6431 18.0784 28.861 18.1125 29.2023V29.5698C18.0784 29.8953 17.85 30.1315 17.5691 30.1578H15.7316C13.2904 30.1578 11.5474 31.8115 11.5474 34.1346V37.4657C11.5474 39.7757 13.0436 41.419 15.4718 41.419H20.5643C21.4778 41.419 22.218 40.7102 22.218 39.844V28.987C22.218 26.3515 20.8845 24.6899 17.703 24.6899H13.8075ZM4.0609 28.8164H5.84065C6.20552 28.8164 6.4969 29.1183 6.4969 29.4884V31.6829C6.49794 31.7701 6.48179 31.8567 6.44937 31.9376C6.41695 32.0186 6.3689 32.0924 6.30796 32.1548C6.24702 32.2172 6.17439 32.267 6.0942 32.3013C6.01402 32.3356 5.92786 32.3538 5.84065 32.3549H5.57815C5.07415 32.3601 4.5649 32.3549 4.0609 32.3549V28.8164ZM16.3196 34.006H17.4878C17.8526 34.006 18.1493 34.2895 18.1493 34.636V37.0825C18.1484 37.1506 18.1359 37.218 18.1125 37.282C18.0658 37.4096 17.9806 37.5196 17.8687 37.5967C17.7568 37.6738 17.6237 37.7143 17.4878 37.7125H16.3196C16.1486 37.716 15.983 37.6518 15.8591 37.5338C15.7352 37.4158 15.663 37.2535 15.6581 37.0825V34.6334C15.6581 34.2869 15.9548 34.006 16.3196 34.006Z" fill="#333333"/>
</g>
<defs>
<clipPath id="clip0_351_24264">
<rect width="63" height="63" fill="white"/>
</clipPath>
</defs>
</svg>
