<svg width="23" height="20" viewBox="0 0 23 20" fill="none" xmlns="http://www.w3.org/2000/svg">
<path d="M11.5 3.75874C15.29 3.75874 18.67 5.88874 20.32 9.25874C19.73 10.4787 18.9 11.5287 17.91 12.3787L19.32 13.7887C20.71 12.5587 21.81 11.0187 22.5 9.25874C20.77 4.86874 16.5 1.75874 11.5 1.75874C10.23 1.75874 9.01 1.95874 7.86 2.32874L9.51 3.97874C10.16 3.84874 10.82 3.75874 11.5 3.75874ZM10.43 4.89874L12.5 6.96874C13.07 7.21874 13.53 7.67874 13.78 8.24874L15.85 10.3187C15.93 9.97874 15.99 9.61874 15.99 9.24874C16 6.76874 13.98 4.75874 11.5 4.75874C11.13 4.75874 10.78 4.80874 10.43 4.89874ZM1.51 1.62874L4.19 4.30874C2.56 5.58874 1.27 7.28874 0.5 9.25874C2.23 13.6487 6.5 16.7587 11.5 16.7587C13.02 16.7587 14.48 16.4687 15.82 15.9387L19.24 19.3587L20.65 17.9487L2.92 0.20874L1.51 1.62874ZM9.01 9.12874L11.62 11.7387C11.58 11.7487 11.54 11.7587 11.5 11.7587C10.12 11.7587 9 10.6387 9 9.25874C9 9.20874 9.01 9.17874 9.01 9.12874ZM5.61 5.72874L7.36 7.47874C7.13 8.02874 7 8.62874 7 9.25874C7 11.7387 9.02 13.7587 11.5 13.7587C12.13 13.7587 12.73 13.6287 13.27 13.3987L14.25 14.3787C13.37 14.6187 12.45 14.7587 11.5 14.7587C7.71 14.7587 4.33 12.6287 2.68 9.25874C3.38 7.82874 4.4 6.64874 5.61 5.72874Z" fill="#999999"/>
</svg>
