<svg width="13" height="17" viewBox="0 0 13 17" fill="none" xmlns="http://www.w3.org/2000/svg">
<path d="M10.6242 6.2596H9.16667V1.73012C9.16667 1.23187 8.75417 0.824219 8.25 0.824219H4.58333C4.07917 0.824219 3.66667 1.23187 3.66667 1.73012V6.2596H2.20917C1.39333 6.2596 0.980833 7.23797 1.55833 7.80868L5.76583 11.9667C6.12333 12.32 6.70083 12.32 7.05833 11.9667L11.2658 7.80868C11.8433 7.23797 11.44 6.2596 10.6242 6.2596ZM0 15.3186C0 15.8168 0.4125 16.2245 0.916667 16.2245H11.9167C12.4208 16.2245 12.8333 15.8168 12.8333 15.3186C12.8333 14.8203 12.4208 14.4127 11.9167 14.4127H0.916667C0.4125 14.4127 0 14.8203 0 15.3186Z" fill="#4D4D4D"/>
</svg>
