<svg width="64" height="54" viewBox="0 0 64 54" fill="none" xmlns="http://www.w3.org/2000/svg">
<path d="M51.6667 36C49.3333 36 47.6667 34 47.6667 32C47.6667 29.6667 49.6667 28 51.6667 28C53.6667 28 55.6667 30 55.6667 32C56 34 54 36 51.6667 36ZM51.6667 20C45.3333 20 40 25.3333 40 31.6667C40 40.3333 51.6667 53.3333 51.6667 53.3333C51.6667 53.3333 63.3333 40.3333 63.3333 31.6667C63.3333 25.3333 58 20 51.6667 20ZM39.6667 17.6667C38.6667 13.3333 34.6667 10 30 10C24.3333 10 20 14.3333 20 20C20 25.6667 24.3333 30 30 30C31.3333 30 32.3333 29.6667 33.3333 29.3333C34 24.6667 36.3333 20.6667 39.6667 17.6667ZM33.3333 33.3333H13.3333C13.3333 31.5652 12.631 29.8695 11.3807 28.6193C10.1305 27.369 8.43478 26.6667 6.66667 26.6667V13.3333C8.43478 13.3333 10.1305 12.631 11.3807 11.3807C12.631 10.1305 13.3333 8.43478 13.3333 6.66667H46.6667C46.6667 8.43478 47.369 10.1305 48.6193 11.3807C49.8695 12.631 51.5652 13.3333 53.3333 13.3333C53.3333 13.3333 56.6667 13.3333 60 15.3333V0H0V40H35C34.3333 37.6667 33.6667 35.6667 33.3333 33.3333Z" fill="#F67B22"/>
</svg>
